<svg width="40" height="40" viewBox="0 0 40 40" fill="none" xmlns="http://www.w3.org/2000/svg">
<rect width="40" height="40" rx="20" fill="#FACFF6"/>
<path fill-rule="evenodd" clip-rule="evenodd" d="M14 14C14 12.8954 14.8954 12 16 12H20.5858C21.1162 12 21.6249 12.2107 22 12.5858L25.4142 16C25.7893 16.3751 26 16.8838 26 17.4142V26C26 27.1046 25.1046 28 24 28H16C14.8954 28 14 27.1046 14 26V14ZM16 20C16 19.4477 16.4477 19 17 19H23C23.5523 19 24 19.4477 24 20C24 20.5523 23.5523 21 23 21H17C16.4477 21 16 20.5523 16 20ZM17 23C16.4477 23 16 23.4477 16 24C16 24.5523 16.4477 25 17 25H23C23.5523 25 24 24.5523 24 24C24 23.4477 23.5523 23 23 23H17Z" fill="#E70DD1"/>
</svg>
