<svg width="40" height="40" viewBox="0 0 40 40" fill="none" xmlns="http://www.w3.org/2000/svg">
<rect width="40" height="40" rx="20" fill="#E9F7F2"/>
<path fill-rule="evenodd" clip-rule="evenodd" d="M10.2076 13.818C13.968 13.767 17.3941 12.3322 20 9.99991C22.6059 12.3322 26.032 13.767 29.7924 13.818C29.9289 14.6314 30 15.4671 30 16.3194C30 22.8504 25.826 28.4066 20 30.4658C14.174 28.4066 10 22.8504 10 16.3194C10 15.4671 10.0711 14.6314 10.2076 13.818ZM20 16.3193C20.4142 16.3193 20.75 16.6551 20.75 17.0693V19.3193H23C23.4142 19.3193 23.75 19.6551 23.75 20.0693C23.75 20.4835 23.4142 20.8193 23 20.8193H20.75V23.0693C20.75 23.4836 20.4142 23.8193 20 23.8193C19.5858 23.8193 19.25 23.4836 19.25 23.0693V20.8193H17C16.5858 20.8193 16.25 20.4835 16.25 20.0693C16.25 19.6551 16.5858 19.3193 17 19.3193L19.25 19.3193V17.0693C19.25 16.6551 19.5858 16.3193 20 16.3193Z" fill="#22B07D"/>
</svg>
