<svg width="40" height="40" viewBox="0 0 40 40" fill="none" xmlns="http://www.w3.org/2000/svg">
<rect width="40" height="40" rx="20" fill="#F7D4D4"/>
<path fill-rule="evenodd" clip-rule="evenodd" d="M13 15C13 13.8954 13.8954 13 15 13H25C26.1046 13 27 13.8954 27 15V23C27 24.1046 26.1046 25 25 25H22.7808L22.903 25.4887L23.7071 26.2929C23.9931 26.5789 24.0787 27.009 23.9239 27.3827C23.7691 27.7563 23.4045 28 23 28H17C16.5956 28 16.2309 27.7563 16.0761 27.3827C15.9214 27.009 16.0069 26.5789 16.2929 26.2929L17.0971 25.4887L17.2193 25H15C13.8954 25 13 24.1046 13 23V15ZM18.7713 22C18.7566 21.9997 18.7419 21.9997 18.7273 22H15V15H25V22H21.2728C21.2582 21.9997 21.2435 21.9997 21.2288 22H18.7713Z" fill="#D62827"/>
</svg>
