<svg width="40" height="40" viewBox="0 0 40 40" fill="none" xmlns="http://www.w3.org/2000/svg">
<rect width="40" height="40" rx="20" fill="#D9E5F4"/>
<path fill-rule="evenodd" clip-rule="evenodd" d="M21.3006 11.0463C21.7169 11.1776 22 11.5636 22 12.0001V17.0001L26 17.0001C26.3729 17.0001 26.7148 17.2075 26.887 17.5383C27.0592 17.869 27.0331 18.2681 26.8192 18.5735L19.8192 28.5735C19.5689 28.9311 19.1156 29.085 18.6994 28.9538C18.2831 28.8226 18 28.4365 18 28.0001L18 23.0001H14C13.6271 23.0001 13.2852 22.7926 13.113 22.4619C12.9408 22.1312 12.9669 21.7321 13.1808 21.4266L20.1808 11.4266C20.4311 11.069 20.8844 10.9151 21.3006 11.0463Z" fill="#427BC8"/>
</svg>
