<svg width="60" height="60" viewBox="0 0 60 60" fill="none" xmlns="http://www.w3.org/2000/svg">
<circle cx="30" cy="30" r="30" fill="#427BC8"/>
<path fill-rule="evenodd" clip-rule="evenodd" d="M18.1001 19.8001C18.1001 18.8612 18.8612 18.1001 19.8001 18.1001H24.9001C25.839 18.1001 26.6001 18.8612 26.6001 19.8001V24.9001C26.6001 25.839 25.839 26.6001 24.9001 26.6001H19.8001C18.8612 26.6001 18.1001 25.839 18.1001 24.9001V19.8001ZM21.5001 23.2001V21.5001H23.2001V23.2001H21.5001Z" fill="white"/>
<path fill-rule="evenodd" clip-rule="evenodd" d="M18.1001 35.1001C18.1001 34.1612 18.8612 33.4001 19.8001 33.4001H24.9001C25.839 33.4001 26.6001 34.1612 26.6001 35.1001V40.2001C26.6001 41.139 25.839 41.9001 24.9001 41.9001H19.8001C18.8612 41.9001 18.1001 41.139 18.1001 40.2001V35.1001ZM21.5001 38.5001V36.8001H23.2001V38.5001H21.5001Z" fill="white"/>
<path fill-rule="evenodd" clip-rule="evenodd" d="M35.1001 18.1001C34.1612 18.1001 33.4001 18.8612 33.4001 19.8001V24.9001C33.4001 25.839 34.1612 26.6001 35.1001 26.6001H40.2001C41.139 26.6001 41.9001 25.839 41.9001 24.9001V19.8001C41.9001 18.8612 41.139 18.1001 40.2001 18.1001H35.1001ZM36.8001 21.5001V23.2001H38.5001V21.5001H36.8001Z" fill="white"/>
<path d="M31.7001 19.8001C31.7001 18.8612 30.939 18.1001 30.0001 18.1001C29.0612 18.1001 28.3001 18.8612 28.3001 19.8001V21.5001C28.3001 22.439 29.0612 23.2001 30.0001 23.2001C30.939 23.2001 31.7001 22.439 31.7001 21.5001V19.8001Z" fill="white"/>
<path d="M30.0001 24.9001C30.939 24.9001 31.7001 25.6612 31.7001 26.6001V28.3001H35.1001C36.039 28.3001 36.8001 29.0612 36.8001 30.0001C36.8001 30.939 36.039 31.7001 35.1001 31.7001H30.0001C29.0612 31.7001 28.3001 30.939 28.3001 30.0001V26.6001C28.3001 25.6612 29.0612 24.9001 30.0001 24.9001Z" fill="white"/>
<path d="M40.2001 28.3001C39.2612 28.3001 38.5001 29.0612 38.5001 30.0001C38.5001 30.939 39.2612 31.7001 40.2001 31.7001C41.139 31.7001 41.9001 30.939 41.9001 30.0001C41.9001 29.0612 41.139 28.3001 40.2001 28.3001Z" fill="white"/>
<path d="M28.3001 35.1001C28.3001 34.1612 29.0612 33.4001 30.0001 33.4001H31.7001C32.639 33.4001 33.4001 34.1612 33.4001 35.1001C33.4001 36.039 32.639 36.8001 31.7001 36.8001V40.2001C31.7001 41.139 30.939 41.9001 30.0001 41.9001C29.0612 41.9001 28.3001 41.139 28.3001 40.2001V35.1001Z" fill="white"/>
<path d="M24.9001 31.7001C25.839 31.7001 26.6001 30.939 26.6001 30.0001C26.6001 29.0612 25.839 28.3001 24.9001 28.3001H19.8001C18.8612 28.3001 18.1001 29.0612 18.1001 30.0001C18.1001 30.939 18.8612 31.7001 19.8001 31.7001H24.9001Z" fill="white"/>
<path d="M41.9001 35.1001C41.9001 36.039 41.139 36.8001 40.2001 36.8001H36.8001C35.8612 36.8001 35.1001 36.039 35.1001 35.1001C35.1001 34.1612 35.8612 33.4001 36.8001 33.4001H40.2001C41.139 33.4001 41.9001 34.1612 41.9001 35.1001Z" fill="white"/>
<path d="M40.2001 41.9001C41.139 41.9001 41.9001 41.139 41.9001 40.2001C41.9001 39.2612 41.139 38.5001 40.2001 38.5001H35.1001C34.1612 38.5001 33.4001 39.2612 33.4001 40.2001C33.4001 41.139 34.1612 41.9001 35.1001 41.9001H40.2001Z" fill="white"/>
</svg>
