<svg width="40" height="40" viewBox="0 0 40 40" fill="none" xmlns="http://www.w3.org/2000/svg">
<rect width="40" height="40" rx="20" fill="#CDEFFE"/>
<path d="M15 13C13.8954 13 13 13.8954 13 15V17C13 18.1046 13.8954 19 15 19H17C18.1046 19 19 18.1046 19 17V15C19 13.8954 18.1046 13 17 13H15Z" fill="#06AFF8"/>
<path d="M15 21C13.8954 21 13 21.8954 13 23V25C13 26.1046 13.8954 27 15 27H17C18.1046 27 19 26.1046 19 25V23C19 21.8954 18.1046 21 17 21H15Z" fill="#06AFF8"/>
<path d="M21 15C21 13.8954 21.8954 13 23 13H25C26.1046 13 27 13.8954 27 15V17C27 18.1046 26.1046 19 25 19H23C21.8954 19 21 18.1046 21 17V15Z" fill="#06AFF8"/>
<path d="M21 23C21 21.8954 21.8954 21 23 21H25C26.1046 21 27 21.8954 27 23V25C27 26.1046 26.1046 27 25 27H23C21.8954 27 21 26.1046 21 25V23Z" fill="#06AFF8"/>
</svg>
